PathFileType	4	(X/Y/Z)	C:\Users\WrightLab\Desktop\Jo\P3_6.trc
DataRate	CameraRate	NumFrames	NumMarkers	Units	OrigDataRate	OrigDataStartFrame	OrigNumFrames
100.00	100.00	       8	19	mm	100.00	133	       530
Frame#	Time	Headset_Front			Headset_Back			Headset_Left			Headset_Right			Left_Shoulder			Right_Shoulder			Sternum			C7			Left Elbow			Right Elbow			Left Wrist			Right Wrist			Left ASIS			Right ASIS			S2			Left Knee			Right Knee			Left Ankle			Right Ankle			
		X1	Y1	Z1	X2	Y2	Z2	X3	Y3	Z3	X4	Y4	Z4	X5	Y5	Z5	X6	Y6	Z6	X7	Y7	Z7	X8	Y8	Z8	X9	Y9	Z9	X10	Y10	Z10	X11	Y11	Z11	X12	Y12	Z12	X13	Y13	Z13	X14	Y14	Z14	X15	Y15	Z15	X16	Y16	Z16	X17	Y17	Z17	X18	Y18	Z18	X19	Y19	Z19	

133	1.320	-174.36035	1427.30713	1192.30994	-62.54299	1644.45398	1367.76038	-201.43930	1558.07654	1354.26672				-233.53345	1342.69263	1430.43774	114.93459	1374.85730	1399.69165	-69.61509	1237.65320	1293.60425	-55.68975	1414.62732	1464.31470	-355.79843	1035.65479	1400.98828	227.18584	1040.93188	1415.17273	-414.16141	893.38300	1259.62634	204.15286	891.64838	1233.42456	-141.82539	870.13867	1328.58130				-6.32803	962.17706	1530.16333	-119.89136	459.40479	1451.34802	148.06371	488.25269	1232.59814	-102.01591	149.25949	1572.42944	179.60486	167.22363	1150.04944	
134	1.330	-173.05734	1425.98657	1184.87097	-60.97031	1643.05286	1359.66113	-199.41959	1557.05994	1346.29297				-231.70778	1341.69653	1423.84399	117.30707	1373.32324	1390.07178	-68.61494	1236.56165	1284.97070	-52.46105	1413.40930	1455.07153	-353.33722	1033.82104	1397.97742	228.51193	1038.61328	1405.22693	-412.09103	889.69891	1259.42090	205.15092	889.33105	1224.01172	-140.91249	868.78271	1320.70679				-3.94054	961.75635	1522.34875	-118.75736	459.01321	1445.16968	147.73100	488.00159	1223.33179	-101.74398	149.55228	1570.72717	180.33742	166.68349	1139.55432	
135	1.340	-172.15132	1424.56519	1176.23621	-58.93068	1642.77417	1352.70056	-197.67397	1556.10828	1338.23425				-229.63885	1341.07166	1416.64612	119.32497	1371.61731	1379.88721	-67.52693	1235.42749	1275.74976	-49.80401	1412.30762	1447.03027	-350.21271	1031.59753	1395.23059	230.58194	1037.29456	1394.59204	-410.14642	885.86066	1258.48218	206.15987	887.11267	1213.91418	-140.06104	867.12231	1311.51929				-1.96935	959.87567	1511.84766	-117.47734	457.46561	1438.15088	147.81424	486.93207	1213.45471	-101.45365	150.14307	1568.96350	180.91664	165.72258	1130.82312	
136	1.350	-170.96320	1424.33521	1167.92151	-56.28747	1641.42603	1343.97229	-195.53867	1554.96448	1330.19165				-227.64037	1340.22180	1409.12378	121.24707	1370.21313	1369.86536	-66.56015	1234.95166	1266.69104	-47.96880	1411.47583	1437.54480	-347.04352	1029.89990	1392.52515	231.72723	1035.98279	1384.34729	-407.50894	881.56152	1258.43201	206.66818	884.90155	1204.34692	-138.79063	865.14972	1303.53418				0.50195	959.20837	1502.67908	-115.74853	455.94962	1431.02319	147.53569	486.61353	1202.53540	-101.08365	150.61266	1567.52783	181.71216	163.08081	1125.05469	
137	1.360	-169.48250	1423.07642	1159.63098	-54.60637	1640.61633	1335.33801	-193.62090	1554.22925	1322.00183				-225.62042	1339.44934	1401.26440	123.26402	1368.77966	1360.18665	-65.23674	1233.56274	1257.68604	-45.05619	1410.29199	1428.52856	-343.83563	1028.23596	1389.89417	233.08122	1033.55237	1373.80310	-405.05453	877.83435	1258.68567	207.97612	882.53162	1194.40491	-136.70445	863.67450	1294.76733				2.48575	958.30725	1493.27893	-114.11613	454.25400	1423.63208	147.28964	485.52914	1191.77393	-100.46655	151.13356	1565.73621	182.42346	160.17070	1120.30701	
138	1.370	-168.52621	1423.06641	1150.46375	-52.23088	1639.33020	1326.85217	-191.42763	1552.83813	1313.89001				-223.72923	1338.91492	1393.03296	125.50430	1367.34680	1350.42407	-64.05550	1232.32825	1248.02600	-42.44630	1408.96997	1419.37268	-340.09735	1026.22119	1387.48059	235.33745	1031.76697	1362.87378	-402.40692	874.20026	1259.44165	208.95833	880.26239	1184.57544	-135.93608	861.63354	1286.03918				4.45538	956.77496	1483.71082	-112.08905	452.15396	1416.19861	146.58743	484.94525	1180.60901	-100.13467	151.93182	1564.04407	183.32224	157.57129	1116.87915	
139	1.380	-166.36826	1422.19495	1143.00500	-50.63471	1638.63867	1318.45593	-189.58879	1552.14636	1305.48206				-221.53203	1337.78552	1384.96399	127.48074	1365.97620	1340.66296	-62.35154	1231.15405	1239.47656	-39.82099	1408.30652	1410.07764	-336.18384	1024.39087	1384.91003	236.45262	1030.35022	1352.52454	-399.55847	869.82458	1259.77466	209.06691	878.19623	1174.90381	-133.51872	860.22498	1277.78040				6.78931	955.70551	1474.15564	-110.26136	450.32007	1408.00903	145.82416	483.63382	1169.91296	-99.61979	152.96046	1562.33215	183.01845	154.11365	1113.22449	
140	1.390	-165.50392	1421.90076	1133.31311	-48.25888	1637.42371	1309.94482	-187.55647	1550.98621	1297.23511				-219.54762	1336.90259	1376.94934	129.31209	1364.32300	1329.75159	-60.91084	1230.60571	1230.01074	-37.61625	1407.81787	1402.62048	-332.46066	1022.79340	1382.32910	238.49875	1029.13879	1341.72473	-396.28198	865.71027	1260.30762	210.66145	876.03931	1164.45422	-132.10245	858.53485	1268.11487				8.97766	953.88495	1464.18127	-108.03527	448.45193	1399.50317	144.54556	482.04642	1159.38477	-98.76053	154.13638	1560.09485	181.98148	153.00459	1107.65247	
